<?xml version="1.0" encoding="UTF-8"?>
<svg version="1.1" viewBox="0 0 869 868" width="869" height="868" xmlns="http://www.w3.org/2000/svg">
<path transform="translate(0)" d="m0 0h869v868h-869z" fill="#473731"/>
<path transform="translate(0)" d="m0 0h235l4 21 2 25 1 4 2 19v32l1 2v12l2 5 1 19 5 8 4 11 3 1 1 4 1 14 2 6 1 16-1 17-1 5 2 7 4 10 3 12 1 9-3 9 1 10 7 5 15 4 7 4 5 4 8 3 6 1 6 2 1 7-2 6-2 5-2 2-3 7-5 5-1 6 3 6-2 7-3 4v8l2 4 5 1 1 13 1 10-3 7-5 7h-2v10h-2l-8-16-6-10-4-9-4-16-2-1-1-3-3 1 3 4 2 5 2 12 5 12 3 6 5 11 2 1 4 8 3 1 8 10 4 10 4 6v4l4 2 1 6 4 2 2 5 7 2 1 2h5l9-6 13-13 14-11 16-12 11-8h3l7-2 2-7h2l2-4v6h2l4-16 9-17 7-9 5-3 3-1-2 4-3 5-2 2h-3l1 3-3 1 2 3-1 5-5 10-3 1v7l-3 7-2 9v17l1 8 1 5 3 9v6l-3 1-1 4 4 1 3 5 5 8-2 5-3 1-2-3-5-2-1-5-4-2-1-3-4-1-1-6-4-5v-3h-3v2h-2l4 10 3 4 3 5 3 3v2l4 2 5 6 8 4v2l4 2 18 6 11 3-2 4-6 4-6 2-6 4-3 8h-2l3 7v10l-9 8-2 1v12l4 19 1 4-2 3 1 4 3 4-2 10-6 5-3 7 2 5-2 2-13-1-3-2-7 1-9 1h-10l-13 3-7 1-5-1-7 1-4-1-11 3-6-5 1-4 4-2 9-2 1-3-3-9-4-3-9-1-1-4 1-2h-2l-4-7-4-10-2-13-5-3-10-4-4-4v-2l-4-2-4-4-7-1-8 1-3 1v2l-5 3-1 1v8h-2l1 42 3 1v2l-3 2-1 12-1 6 4 3h15l-1 3-15 1-3-2 1 9 1 15 6 1 4-5 16 1 2 1v7l-1 3 4 1 3-9 10-3 7-2 5-2 3-2v-5l7-6 4-1 9 4v2l6-1 9 3 16 6 9 3 14 3 5 2 9 2 9 3 5 3 6 3h6l6-3 13-2 22-1 15 1 9 4h7l6-2 17-2v-12l-2-12-5-2-7-3 1-4 2-2 1-13h2l6 9 2 10 4 10 2 9 5 17 2 8 2 3 7 28 3 3 2 8 3 9 1 1v11h2l4 12 2 9 5 9 2 2v6l4 7 2 7 2 9h2l2 5-1 7 3-1 2 7 2 3 2 6 5 12 3 10 2 4h-623z" fill="#160E0E"/>
<path transform="translate(510)" d="m0 0h148l-3 3-6 4 1 5 4 3-1 4-3 1 4 4 11 4 14 3 3 1-3-3v-2l-3-1v-3l-4-1-6-4v-3l5-1 6 1 6-1 7 3 6 3 2 3-1 7-2 2h-8l-1 1 7 3 11 5 7 10v2l4 2 6 9 4 10 2 14 4 8v7l3 7 3 10 1 5 1 10 2 14 6 12 4 6v3h-2l3 9-1 16-2 9-2 4-4 3-5-1-3-4-12-4h-7l-4 2-7 2-3 6v12l4 9-5 5-3 7-31 1-8 1-1 5 1 2-5 2-8 1-5 3-7 1 1 2h18l4 2-21 1-12 5-12 2-4 2-4 4h-2l-1 3-3-2-4-9-4-6-5-4-6-2-1-3v-7h-2v2h-8l-5-5v-30l-3-12v-4l-1 3-5-1-3-1h-8l-4 1-13-5-6-4-12-3-11-7-5-10-3-17-6-5 1-5h2l3 5 3 1-1-7-5-1 2-5 1 3 3-1-1-5 4-10 3-1-1-8 4-12 5-5 8-14 8-9 8-6 4-8 4-10 8-12 5-12 4-4h3v-2l19-6h2l1-4h-7l-2-1-10-1-6-3-21-3-11-1-12-2z" fill="#160E0E"/>
<path transform="translate(502,334)" d="m0 0h7l4 15 3 5v3l2 11-1 3 1 7-1 2h2l5 22-1 6-1 2h-2l-3 12-2 5v22l1 7 3 7v10l1 5-3 1v3l9 2h7l3-3v-6l6-17 2-3h2v7h2l2 3h3l3-6 7-5 2-4-1-13-2-2v-11l-2-3 1-5 4 1 5 16 2 4 3 2 2 7 2 1 3-8 2-10 4-6 6-2-1-2v-6l5-1-1 6-3 8h-3l1 7-4 9-5 12-4 8-2 6-4 11-2 8 1 5 4-1 2-1 2-7 7-1h3v-6h5l1-5 6-6 4 1 1 4 5-2 4-9 6-2 1 5-3 9-5 7h-2l-1 5-6 15v5l4-1 5-5 3-1 1-3 6-4 4-7h2l4-16 3 1 2 8v7l-4 13-3 9-4 11v18l-2 5 1 2 7 1v-2l6-1 5-9 4-5 3-6 5-3 2-6 3-6 3-2 5 1 6 7v12l-2 11v12l1 5-4 2-1 3v6l-2 3v7l2 9-2 8-4 17-2 2-4 1-2 13v11l2 12 1 11 5 5 5 4-1 5-2 4 9 3 3 5-5 1-4-1 2 5 3 3v5l-5 3-4-1v-2l-5 3-4-1v-4l5-1v-4l-5 1-4-6-7-2-1-6-8-3v-2l2-2-4-1-5-5-7 1-4-6v-2h-2l-4-6v-2l-5 1 5 5v5l-4 2-4-2v7l4 1 2 10 2 4 4 2v5l5 5 4 6 3 8 2 7v2h7l1 4-2 5 5 2-1 6 6 6 5 3 4 13 1 5-5 1-6-4-4-4-3-6v-2l-10-3-2-2-1-9-2-2-6 1-6-9v-6h-10l-1 2 2-12-3-6-5-4-4-11v-2l-4-1-3-8-6-5-1-18v-2l-7-1-2-12-7-10-3-6-1-10-4-5-3-8-1-2v-13l1-6-5-2-3-10-2-19-6-17-1-5-3-5v-4l-12 2-3 6-2-2-1-3-1 4v11l-3 1v4l4 2 4 5 2 4v5l-3 2-16-2-3-3 1-9 3-9 3-3-5-5v-3l-3-1 1-4 1-2-5 3-2 3h-5l3-5 1-3 6-2 1-3h-17l3 2v2l3 1-1 3-5-1v-2l-7-2v-2l3-3-5-3-9-3-1-3-5-1-3-3-1-7-1-9-2-10-2-2v-7h-3l1-8-2-3-1-8v-9l3-12 1-9 4-10-1-10 2-1 3-6 6-7 8-10 6-5 5-5 9-7h2v2l3-1 3-5z" fill="#281C1C"/>
<path transform="translate(495,510)" d="m0 0h2l-1 6 2 1 2 4 4 4-2 3h-2l-3 13v5l2 2 16 2 2-1v-5l-5-8-4-3v-4l2-1 1-7h1l2 8 2-2 2 4 1 8 3 4 1 5 1 7v4l4 11 3 11 2 2-1 13 3 13 2 6v5h2l-1 12-1 9-3 3-1 3 7 2 5 3 2 5 1 10-1 9-21 4-2 1h-7l-9-4-21-1-23 2-8 2-4 2h-6l-10-5-2-2-20-5-10-3-12-3-15-6-9-2-4-1v-2l-6 1v-2l-10-3-7 4-2 4-1 4 1 2-15 3-3 2-8 2-3 9-4-1-1-2 2-9-18-1-5 5-5-2-2-8v-16l9 1 9-1 1-2-15 1-5-4 2-18 4-2-4-5v-40h2l-1-9 4-3h3v-2l3-2 9-1 7 2 7 6 5 6 12 4 3 3 3 16 5 11 1 3h2v5l9 1 6 5 2 9-2 3-13 3 1 5 4 3 12-3 7 1 4-1 5 1 17-3 2-1h14l8-2 5 1 8 2h7v-4l-1-3 5-8 5-5 1-8-4-5 2-8-2-5-3-16v-12l2-3h2l3-1 2-4 2-1v-10l-2 2v-9h2l1-5 3-5 6-4 6-2 6-4 1-2 14-1z" fill="#281C1C"/>
<path transform="translate(259,27)" d="m0 0 15 2 11 1 9 1 4 1h7l10 2 17 1h11l9 6h4v-2l8-4 4-4 5 1 3 6 12 5 4 2 18 2 6 2 9 1 13 5 8 4 8 1 3 2h10l2 1 10 1 2 2-1 5-4 9-4 3-1 3-7 1-1 9 7 1v3h-9l-5-1-15 3-7 1-3-3-3-1h-11l-12-2-43-1v-2h-21l-17-3-9-2-7-1-20 1-19 3h-4l-1-5-1-17-5-28-1-6v-8z" fill="#271B1B"/>
<path transform="translate(537,628)" d="m0 0h2l6 9 2 10 4 10 2 9 5 17 2 8 2 3 7 28 3 3 2 8 3 9 1 1v11h2l4 12 2 9 5 9 2 2v6l4 7 2 7 2 9h2l2 5-1 7 3-1 2 7 2 3 2 6 5 12 3 10 2 4h-109l2-8 7-18 3-9 1-5 1-15 5-27 2-13 3-11h2l1-12 1-7v-24l1-17 3-20-9-1h-8l-5 3-6 1-9-1-12 2h-8l-3-2v-2h-15l-2-1h-8l-9 1 1-2 5-2 13-2 22-1 15 1 9 4h7l6-2 17-2v-12l-2-12-5-2-7-3 1-4 2-2z" fill="#281C1C"/>
<path transform="translate(0)" d="m0 0h2v78l5-1h15l10-3v-2l4 1v28l1 3v16l-1 17-1 2h-2l-2 28-1 28-1 5v30l-2 3v22l-5 3-1 2 4 2 2 9 1 22v16l-1 16v28l-2 7-5 1-3-5-1-4 2-10 1-38-6-9-1-10-4 2-1 18-4 13-1 17h3l1 7-2 4h-2l1 123 7-3 13 1 1 1v14l-2 3-10 2-10-2v34l7-1 1 1v5l-6 1-2-1v34l4-1 1-5 9-3h4l1 7-3 8h-7l-3 1-5 1v54h3l2-5 4-1v-2h2l1-3h3v-4l-4-2-3-3v-5l3-1v-12l1-2h5l1 2v49l-2 10-2 3-7 3h-8v221h-2z" fill="#463631"/>
<path transform="translate(497,705)" d="m0 0h8l3 2 1 9v9l-2 4 1 7 1 1v10l-1 6 2 11-2 17-1 9 3 20 1 7-3 17-2-4v8l2 3v8l-2 9-1 4 2 1v3l2 1-2 1h-51l-5-5-1-8 2-2-1-5v-20l2-3 4-1 7 4 4 5 7 2-1-4-2-2v-3h-2v-2h-2l1-3 11-1v-5l-8-7-2-3-5 1v-2l-6 2-2-7-1-8h-2l-1-3v-10l1-1v-14l3-1 1-7 3-2 6-2 1-3h-10l-7-2 1-4-2-1 1-7 4-3-1-7-2-8h2l-1-3h2v-2h14l13-4 1-1h12z" fill="#271B1B"/>
<path transform="translate(482,592)" d="m0 0 7 2 9 1 9 6 9 2 6 5 6 1 4 6v5h2l4 11-1 10-3 3-1 3 7 2 5 3 2 5 1 10-1 9-21 4-2 1h-7l-9-4-21-1-23 2-14 3-8-3-10-8-16-3-27-6-9-6-7-2v-2l-4-1v-3l2-1 18-2h21l8 3 1-3 4-1 3 1 16-1 10-2 4-2 3 2 16 3h9l6 1h10l-1-6-3-1-7 1-8-2-6 1-3-1h-17l-1-4 2-3v-14l2-4 2-8 1-7 3-3 4-1z" fill="#463631"/>
<path transform="translate(406,321)" d="m0 0 4 5v3l4 2 3 6v2l3 1 2 4 11 1 4 3 10 2 1 4 9 2 2 3 5-1-2 4-9 2-2 3-2-1 2-3h-2v-2l-8-4h-2l3 9 1 2 3 1-2 4-5 6-5 12-5 3-3 2-6 11-4 5-5 5-12 9-13 9h-2v2l-6 4-3 1-2 4-6 5-7 8-11 9-4-1-7-11-8-11-7-9v-2h-2v-2l-4-2-5-6v-3h3l4 6v2l9 1 2-5 9-3 3-2 11-1 7-5 2-9 5-4 3-6v-17l-2-6 3-3 15-4 9-3 5-3 4-5-1-12 1-5v-14z" fill="#160E0E"/>
<path transform="translate(218)" d="m0 0h17l4 21 2 25 1 4 2 19v32l1 2v12l2 5 1 19 5 8 4 11 3 1 1 4 1 14 2 6 1 16-1 17-1 5 2 7 4 10 3 12 1 9-3 9 1 10 7 5 15 4 7 4 5 4 8 3 6 1 6 2 1 7-2 6-2 4v-2h-3l-1-7-3-3v-2l-6-2-4-2-3-4-5-1-3-4-15-4-8-5-4-5-2-9 3-8v-9l-1-4-5-7-2 2-6-17v-3h-2l-3-8v-8l-3-8-3-2-1-7 2-16 3-4 1-4-8-2-4-5h-5l-2-2-3-16v-21l-2-23-1-23-1-9-1-27-3-29z" fill="#271B1B"/>
<path transform="translate(770,97)" d="m0 0 6 1v18h2v2h-2v7l1 1v13l2 3-1 6h5l3-3 2-4 2-8 6-8 2-5 7-6h5l3 6 1 9 7 6h4l7 5-1 4h-5v5h-2v3l-6 1-4 4 3 1v-3h7l3 3v6l-1 2h-2v5l-4 2-6-4-2-8-10-1-4-4-1-4-7 1-2 2h-4l-2 5-4 2-2 4-3 8-1 10-3 11v6l-3 2-4-5-4-1-5 5h-2v-7l3-3v2l4-1v-9l-2-1v4h-3l1-10h4l-2-4-2-2-3-7-4-5-4-6-1-3-1-17 2-1 1-7 9-2 10-8 4-1-3-7 6-3-1-6z" fill="#806857"/>
<path transform="translate(297,558)" d="m0 0 7 1 8 7 5 6 12 4 3 3 3 16 5 11 1 3h2v5l9 1 6 5 1 6-2 5-17 1-4-1-6 2-6-1 2-5 12-4h2l-1-7-3-3-5 2-6-1-1-3-7-1-3-2h-18l-10 3-6-1-1-1v-43l4-3h3v-2l3-2z" fill="#473732"/>
<path transform="translate(21,551)" d="m0 0h1v132l-2 35-5-1-8 4v6l3 4-4 4 3 2v6l-3 2 3 2 1 6 8 1 1 2v13l-1 2h-5l-5-2-6 1v-123l11-2 4-1 3-13v-51h-5l-1 14-2 1v5l6 5v4l-3 1-1 2h-2v2l-4 1-2 5-4 1v-55l2-2h6l1-1 7 1z" fill="#281C1C"/>
<path transform="translate(779)" d="m0 0h90v23l-7 1-8 2-3 1-2 4-6 1h-9l-3 2-9 3-4 3-12 3-12 1-1 1h-8l-5-2 1-5 6-2 2-6 3-3 2-6 2-1 4 3 5 1v-3l-4-2-3-9-4-1-1 5-3-2v-4h-2v-2l-6-2-3-2z" fill="#281C1C"/>
<path transform="translate(384,559)" d="m0 0h10v3l5 1 3 11v16l-2 8 1 7-1 1-1 12-1 2 2 1-1 4-6 4h-15l-5-4-2-3-1-13h-2l-3-5-3-3-3-9-4-8-5-6-1-2v-6l8-3 20-5z" fill="#281C1C"/>
<path transform="translate(831,240)" d="m0 0h9l5 3 1 2 11 1 2-5 4 2 3 4v13l-1 5 4 2v36l-7-4v-2l-6-2-12-8-4-3 1-2 3 1v2h4l-1-2h2l-5-11-5 3v3l-3-1 2 5-4-2-7-8-5-4-12-6-13-6-9-4-8-6-1-2 4 1 3 1v-2l12-1 1-1 14-1z" fill="#271B1B"/>
<path transform="translate(411,703)" d="m0 0 7 1h8l4 1v2l6 1 2 8 1 15 3 12-1 5-3 1v3l-8 1-9-1-1 2-16 4-1 7 2 1h-2l-1 3-3-5-1-3-5-1-3-2v-8l5-2v-5l2-3h2v-9l1-3-2-15h2l1-5 9-2z" fill="#271B1B"/>
<path transform="translate(510)" d="m0 0h148l-3 3-6 4 1 5 4 3-1 4-3 1v2l-4-1-10-2-9 2-1 5-9-3-7-2v-2l-7 2-1 2h-11l-7 1-2 4-5 1-4-1 1-4 7-2 3-5-7 1 2-1 1-4h-7l-2-1-10-1-6-3-21-3-11-1-12-2z" fill="#281C1C"/>
<path transform="translate(454,368)" d="m0 0h2l-2 4-3 5-2 2h-3l1 3-3 1 2 3-1 5-5 10-3 1v7l-3 7-2 9v17l1 8 1 5 3 9v6l-3 1-1 4 4 1 3 5 5 8-2 5-3 1-2-3-5-2-1-5-4-2-1-3-4-1-1-6-4-5v-3h-3v2h-2l4 10 3 4 3 5 3 3-1 2-7-8-8-14-2-8-2-5-1-6-1-21-2-2 9-7 3 1 6-2 2-7h2l2-4v6h2l4-16 9-17 7-9 5-3z" fill="#271B1B"/>
<path transform="translate(10,285)" d="m0 0h2l3 12 5 7-1 38-2 13 3 3v3l4-1 2-2-1 7 1 1v19l-3 3h-3l-1 7-5 5-5 3h-7v-57l2-1 1-8v-2h-3v-17l4-13 1-18z" fill="#271B1B"/>
<path transform="translate(535,351)" d="m0 0h6l4 2 2 5-2 11 4 2 3 9 5 10 1 10 4 2v8l2 2-4 1-4-7h-2l-4 19-3 9-3 5-2 8-3 8-2 9-1 2h-2l2 9-1 2-4-1-3-6-1-7-1-1v-18l-2-2v-7l1-3 1-14 5 1 4 6 3-13 4-7 2-14 3-3-1-8h-2v-2l-6 2-3 3-3-1v-12l2-3v-3l-4-2 2-6h2l-1-3z" fill="#281C1C"/>
<path transform="translate(146,39)" d="m0 0 8 1 2 3v8l-2 2-1 4h-2l-1-8-4-2 2 61v24l1 4 1 14-1 12 3 1 1 7-11-1-6-4-2-3 1-6 3-3v-20l-1-14v-17l-1-25v-24h-4l-1 12-1 2h-5v-21l8-4 5-2z" fill="#463631"/>
<path transform="translate(18,101)" d="m0 0 7 1v5h2v2l4 2-1 5 1 2v9l-6 21v25l-1 3-5 4-1 9-2 3-5-1-3-1-3 2h-3v-33l4 4h5l1-10-4-16v-6l3-4 5-3v-8l-3-5 1-5z" fill="#271B1B"/>
<path transform="translate(716,722)" d="m0 0h7l2 2 1 11 4 8 3 12 1 2 1 9 8 8v9l-5 3-5-5-6-2 1 4 5 3 2 8 1 3v13l-8-1-2-1 1-8 1-5v-6h-7v3h2v4l-6-1-3-6 2-4 2-3 1-7-5-4v-7l3-1v-6l-7-6v-5l3-2v-3l-4-3v-8l3-6z" fill="#281C1C"/>
<path transform="translate(27,28)" d="m0 0 5 1 2 6 1 12v18l3 14-1 17-1 5h-1v-28l-3-1v2l-10 4h-20v-36l10 1 2-4 8-2 3-3-3-3z" fill="#271B1B"/>
<path transform="translate(406,321)" d="m0 0 4 5v3l4 2 3 6v2l3 1 2 4 11 1 4 3 10 2 1 4 9 2 2 3 5-1-2 4-9 2-2 3-2-1 2-3h-2v-2l-8-4h-2l3 9 1 2 3 1-2 4-2 2v-2h-2l-1 2-6-4-2 1-3-4v-2l-7-2-3-2h-15l-7 6-4 4-6-1v-2l-6-1 4-2 10-3 6-4 4-5-1-12 1-5v-14z" fill="#281C1C"/>
<path transform="translate(486,543)" d="m0 0 4 1 9 6 5 2-2 10 2 4 10 3 2 1 9 1 1 5v10l-1 2h-6v-2l-4-2v-3l-9-1-3-3-16-4-1 4-6 2-2-1v-3l-3-1-4-5v-18l6-5z" fill="#473732"/>
<path transform="translate(456,824)" d="m0 0 7 3 13 15 8 9 8 11 2 4 2 2h-40l-5-5-1-8 2-2-1-5v-20l2-3z" fill="#473732"/>
<path transform="translate(82,60)" d="m0 0 5 1 2 3 1 21 1 6v13l2 6 1 5 1 15 1 13-5-2-4-3-1-3-5-2h-4l-1 3-3-2 1-16 1-21 1-2 1-15 2-16z" fill="#271B1B"/>
<path transform="translate(220)" d="m0 0h15l1 3 1 17 1 4 2 27v8l-1 7 1 4v17l-1 14 2 7-1 6-4 1-1-5-2-33-3-22-1-1-3-19v-4h-2z" fill="#160E0E"/>
<path transform="translate(704,197)" d="m0 0 4 1 1 4 5-2 1-1 10-1 3 2 5 1 1 4-4-1-7-2h-7l-4 2-7 2-3 6v12l4 9-5 5-3 7h-30v-1h17v-2h-9l1-4 3-15 3-1 1-9 1-3 1 1 1-5 8-4 3-3z" fill="#281C1C"/>
<path transform="translate(399)" d="m0 0h22l1 3 6 2 3 3v2l10 1 5-1 8 3 2 4-3 9v8l1 10-3 3h-5l-2-2v-7l2-5v-8l-3-6-5-2-16-1-13 1h-15l-3 3-3-1 1-8 9-9z" fill="#271B1B"/>
<path transform="translate(116,47)" d="m0 0h4l1 2 1 17h-2l-1 4-5-1-1-10-4 2v15l1 8 1 3h2v8l5 2 4 6 2 15v11l-3 7v5l4-1 1 3v11l-4-1-1-7-3-1-1-2v-24h-2l-1-9-7-10-7-14v-18l6-11h2l2-6 3-3z" fill="#271B1B"/>
<path transform="translate(835,242)" d="m0 0 5 1 1 1v11l-5 4-5 5-1 3-2 1v3l3 1-1 3-8-7-12-6-13-6-9-4-8-6-1-2 4 1 4 3 7 1v-3l10-2 27-1z" fill="#160E0E"/>
<path transform="translate(145,50)" d="m0 0h1l2 58v24l1 4 1 14-1 12 3 1 1 7-11-1-6-4-2-3 1-6 3-3v-20l-1-14v-23l1 4 5 1 2 2z" fill="#281C1C"/>
<path transform="translate(411,773)" d="m0 0h23l6 7 1 6-5 4h-3l1 4 5 4 6 12v6l-2 3h-7l-5-6-7-15v-3l-3-1-4-7-1-5-7-5z" fill="#271B1B"/>
<path transform="translate(311,341)" d="m0 0 2 1 1 5-4 8-1 1v8l2 4 5 1 1 13 1 10-3 7-5 7h-2v10h-2l-5-10v-8l-4-8v-12l4-6h4v-15l1-1 1-7 3-4z" fill="#271B1B"/>
<path transform="translate(487,375)" d="m0 0h2l2 5 3 1v9l-4 5-1 7 2 11 4 13 2 3-1 7 4 3 2 13 2 4v12h-2l-4-7-5-10-3-9-2-10-4-9-2-5-2-11 1-8 4-5 1-6-2-8z" fill="#473732"/>
<path transform="translate(279,365)" d="m0 0 2 1 2 5 2 12 5 12 3 6 5 11 2 1 4 8 3 1 8 10 4 10 4 6v4l4 2 1 6 4 2 2 5 2 1-7-1-3-6-6-5-2-5-8-7-4-4-2-12-6-2v-6l-4-2-1-3-4-2-2 1-1-7 2-6v-7l-5-1v-2h-2l-3-5v-5h2l-5-10 2-4h2z" fill="#271B1B"/>
<path transform="translate(2,511)" d="m0 0 7 1 12 5-1 18 1 16-4-2-5 3-5 1-1 5h-4v-34h8l-1-5h-7z" fill="#271B1B"/>
<path transform="translate(409,247)" d="m0 0 10 2v14l-1 6h-2l1 3-3 2-2 7-5 1-3-1-2-5-7-3v-2h-2v-9l2-5 6-5z" fill="#160E0E"/>
<path transform="translate(502,355)" d="m0 0 4 2 2 4 1 13 2 6-1 25-1 10 1 1-1 7h-4l-7-13-1-9 2-3v-33l2-9z" fill="#473732"/>
<path transform="translate(393,574)" d="m0 0h2l4 9-1 7-3 3-9 1h-9l-3 1-1 3-6-1-4-5-3-3-1-4-1-5 4-1 9 1 10-2v-1l12-1z" fill="#473732"/>
<path transform="translate(505,508)" d="m0 0h3l3 9v11l-3 1v4l4 2 4 5 2 4v5l-3 2-16-2-3-3 1-9 3-9 3-3-5-5v-3l-3-1 1-4 4-3 5 1z" fill="#160E0E"/>
<path transform="translate(425,587)" d="m0 0 2 1-1 1 7 3-2 8v3h2v3h-2l1 2v10l-4 11-6 4-5-5-1-4v-15l1-5 6-13z" fill="#271B1B"/>
<path transform="translate(356,688)" d="m0 0h6l4 4v10l-2-4-3-3-1 7-1 1-17 2-4 2-10 2-2-4v-9l6-5 19-1z" fill="#281C1C"/>
<path transform="translate(218)" d="m0 0 3 1 5 36 3 32 2 6 1 30 1 2v12l-3 1-2-7-3-31-3-29-2-23-2-22z" fill="#473732"/>
<path transform="translate(384,559)" d="m0 0h8l2 4v3h2v5l-14 3-8 3h-11l-5-2-8-1 1-5 14-4 12-3z" fill="#473732"/>
<path transform="translate(528,262)" d="m0 0h7l8 2-1 5-4 5 1 3 5 3-1 2h-2v5l-1 1h-5l-7-8-2-1-11-1-1-7 8-8z" fill="#281C1C"/>
<path transform="translate(338,315)" d="m0 0 4 2 8 9h3l2 6h2l1 2 1 16h-9l-10 1-1 1h-5l1-5 9-4v-12l-2-2-3-2-2-4v-7z" fill="#281C1C"/>
<path transform="translate(347,714)" d="m0 0 3 2 13 1 4 7-1 8-2 4h-12l-3-3-7-2-1-3 4-7z" fill="#281C1C"/>
<path transform="translate(280,629)" d="m0 0h17l18 2v2l-6 1-1 5-20 5h-7l-5-4 1-6z" fill="#473732"/>
<path transform="translate(385,602)" d="m0 0h9l2 4-2 2v5l3 5-1 5-4 3-14-2-4-4-1-8 8-3h3v-6z" fill="#473732"/>
<path transform="translate(459,430)" d="m0 0 4 2 1 2 1 9 6 9 3 4 3 5 7 10 3 4v3h2v4l4 2-1 2h-5l-3-4-4-2-6-12-4-4-5-10-8-14 1-9z" fill="#473732"/>
<path transform="translate(371,369)" d="m0 0 3 1-1 1v5l2 2 1 10v8l-5 8-5 7-3 6-7 4-13 2-2 4-2 1-5 1h-2v2l-2 1h-8l-1 2v-2l-4-2-5-6v-3h3l4 6v2l9 1 2-5 9-3 3-2 11-1 7-5 2-9 5-4 3-6v-17l-2-6z" fill="#281C1C"/>
<path transform="translate(521,321)" d="m0 0 3 3h3l2 5 4 1-1 6 3 5-1 7h-3v-5l-4 1-1 6h-5l-1-2-1-6-2-6v-2l-3-1v-2h-2v-2l-3 1 2-5 5-1v3l4-1z" fill="#271B1B"/>
<path transform="translate(667,14)" d="m0 0 10 1 6-1 7 3 6 3 2 3-1 7-2 2h-8l-1 2-4-2-3-3v-2l-3-1v-3l-4-1-6-4v-3z" fill="#281C1C"/>
<path transform="translate(471,117)" d="m0 0h9l7 6v8l-1 3-5 2h-8l-5-4-2-3v-6z" fill="#816958"/>
<path transform="translate(332,370)" d="m0 0 4 1 4 6 3 9 3 7 1 10-3 3-5-1-2-4-3-10-3-12v-8z" fill="#271B1B"/>
<path transform="translate(495,510)" d="m0 0h2l-1 6 2 5-1 9-3 4-2 4-5 1-2-6v-2l-4-2v-8l4-5 5-1z" fill="#473732"/>
<path transform="translate(313,38)" d="m0 0h14l3 3 10 3-1 4-4 3-14-1-7-1-6 1v-4l6-3-5 1v-5z" fill="#160E0E"/>
<path transform="translate(297,700)" d="m0 0h10l3 2-2 1 1 2v7l-1 2 2 1v4l-7 2-2-4-5 1-4-4-1-7 4-6z" fill="#281C1C"/>
<path transform="translate(534,306)" d="m0 0 2 1-1 3-3 1-11 1-5 4-2 5-7 4-5 5-3-1 3-1v-3h-2v-10l4-2 1-3 7-3 5 2 14-1z" fill="#271B1B"/>
<path transform="translate(314,108)" d="m0 0 8 1 5 5-1 8-4 3-7 1-6-3-2-4 1-7z" fill="#816958"/>
<path transform="translate(118,103)" d="m0 0 4 1 2 14v11l-3 7v5l4-1 1 3v11l-4-1-1-7-3-1-1-2v-20l-1-4v-7z" fill="#463631"/>
<path transform="translate(357,44)" d="m0 0 10 1 6 2v2h8l3 2v5l-7-1-4 1-14-1-4-2-8-1v-3l5-2z" fill="#160E0E"/>
<path transform="translate(275,32)" d="m0 0 9 2 5 3v-2l7-1 2 1h6l4 3-1 4h-9l-12-2-4 1h-14l-3-2 1-4z" fill="#160E0E"/>
<path transform="translate(568,836)" d="m0 0 4 1 1 5v2l7 3 4 12 3 1v8h-10l-1-3v-4l-3-3-3-9v-5h-2l-1-6z" fill="#473732"/>
<path transform="translate(541,474)" d="m0 0 3 2 1 7-1 6 4 5 2 2-2 1h-19l-5-5-1-5 3-1 4 2h6l3-9v-4z" fill="#160E0E"/>
<path transform="translate(359,164)" d="m0 0h7l5 5-1 8-3 3-9 1-5-5v-7l4-4z" fill="#816958"/>
<path transform="translate(458,834)" d="m0 0 7 1 4 4 7 14v2l2 1h-6l-2 1-5-3-6-6z" fill="#806857"/>
<path transform="translate(287,672)" d="m0 0h7l6 3 1 4-3 8-5 3-5-1-3-1-2-4 1-10z" fill="#271B1B"/>
<path transform="translate(408,145)" d="m0 0h7l5 3 2 7-6 6h-8l-4-4-1-7z" fill="#816958"/>
<path transform="translate(275,136)" d="m0 0h7l5 4 1 7-5 5-6 1-5-3-2-3 1-7z" fill="#816958"/>
<path transform="translate(454,368)" d="m0 0h2l-2 4-3 5-2 2h-3l1 3-3 1 2 3-1 5-5 10-3 1v2h-2v-2h-2v6h-2v-7l9-19 8-10 5-3z" fill="#271B1B"/>
<path transform="translate(330,577)" d="m0 0 4 2 5 12 2 5v4l4 2 1 6h2l1 5 6 2 2 4-5-3-9-1-1-4 1-2h-2l-4-7-4-10-2-13z" fill="#281C1C"/>
<path transform="translate(144,139)" d="m0 0 4 1 1 9v13l3 1 1 7-10-2-2-1 2-5h2v-3h-3v-3h2l-1-10h-2l-1-6z" fill="#473732"/>
<path transform="translate(2,530)" d="m0 0h8l5 6 1 7-2-2-1 4-11 5z" fill="#160E0E"/>
<path transform="translate(22,411)" d="m0 0 4 2v11l-1 9-2 4-4 2-2-2v-18z" fill="#281C1C"/>
<path transform="translate(298,207)" d="m0 0h8l4 4 1 2v6l-5 3-4-1-8-5v-5z" fill="#816958"/>
<path transform="translate(23,367)" d="m0 0h2l1 7-1 10-9 3-5 1-1-4 3-7 7-5z" fill="#473732"/>
<path transform="translate(743,155)" d="m0 0 4 2 4 6 3 4 2 5 3 3-1 3h-3l-2 9h3v-4l4 2h-2v8l-7 2v-16l-2-4v-5h2l-4-8z" fill="#473732"/>
<path transform="translate(16,448)" d="m0 0 7 1 2 2-1 9h-13l-2-2v-6z" fill="#473732"/>
<path transform="translate(418,249)" d="m0 0h1v14l-1 6h-2l1 3-3 2-2 7-5 1-3-1-2-5-7-3v-2h-2v-9l2-3 1 11 8 5 2 3 3-1 1-8 5-5 2-6z" fill="#281C1C"/>
<path transform="translate(436,829)" d="m0 0 5 2 5 10-1 4-6 1-5-5-2-3v-6l1-2z" fill="#281C1C"/>
<path transform="translate(432,740)" d="m0 0 6 2v5l-6 2-12 2h-7l1-4 13-5z" fill="#473732"/>
<path transform="translate(17,442)" d="m0 0 4 1 4 5-1 3-4-2-7 1-3 2v6l1 1 13 1-2 2-10 1-6-1-1-7 2-5 5-6z" fill="#281C1C"/>
<path transform="translate(434,803)" d="m0 0h7l4 7v6l-3 2h-5l-4-4-1-7z" fill="#473732"/>
<path transform="translate(526,264)" d="m0 0h10l1 4-3 2-3 6h-10l-1-7z" fill="#160E0E"/>
<path transform="translate(117,143)" d="m0 0 5 3 1 7 3 1v-9h1v12l-3 5-7-2-1-4h-2v-6l3-1-1-5z" fill="#281C1C"/>
<path transform="translate(860,279)" d="m0 0 5 1 2 5h2v7l-3 2-7-1-1-1-1-9z" fill="#473732"/>
<path transform="translate(9,315)" d="m0 0h7l1 1v16h-4l-4-2z" fill="#160E0E"/>
<path transform="translate(458,737)" d="m0 0h10l3 1-1 5-4 2-10 1-2-1-1-6z" fill="#473732"/>
<path transform="translate(332,642)" d="m0 0 6 1 2 1v7l-3 2h-9l-1-1v-7z" fill="#473732"/>
<path transform="translate(342,420)" d="m0 0 5 1-4 3-3 3-3 2h-5v2l-2 1h-8l-1 2v-2l-4-2-5-6v-3h3l4 6v2l9 1 2-5 9-3z" fill="#271B1B"/>
<path transform="translate(493,158)" d="m0 0 3 1 4 15 3 6 3 1v2l5 2v3h-3v-2l-4-1-5-4-5-10-1-4z" fill="#4B3A34"/>
<path transform="translate(601,11)" d="m0 0 5 2 7 2 9 1v3l-2 2h-8l-6-4-1-2h-2l2 1v3l-6-1-1-1v-5z" fill="#473732"/>
<path transform="translate(279,791)" d="m0 0 2 1 1 4 3 2-1 20h-4l-1-15-1-2v-7z" fill="#271B1B"/>
<path transform="translate(372,297)" d="m0 0 4 1 4 3 2 7-4 2-3-2h-6l-2-3 4-7z" fill="#816958"/>
<path transform="translate(525,838)" d="m0 0h1v7l-4 15-2 8h-6l2-8 7-18z" fill="#473732"/>
<path transform="translate(290,673)" d="m0 0 7 2v9l-2 2h-6l-3-5 2-7z" fill="#473732"/>
<path transform="translate(422,606)" d="m0 0 5 1 2 5-1 5-4 5-4-1-1-8z" fill="#473732"/>
<path transform="translate(2,629)" d="m0 0 5 2h3l2 6v5l-5 1h-5z" fill="#2E2120"/>
<path transform="translate(81,104)" d="m0 0h4l1 6v12l-3 6h-2l-1-14v-8z" fill="#160E0E"/>
<path transform="translate(280,526)" d="m0 0 4 1 3 8v6l-7 1-1-1v-14z" fill="#473732"/>
<path transform="translate(420,214)" d="m0 0h8l1 7-2 4-6 2-2-4v-6l-1-2z" fill="#816958"/>
<path transform="translate(405,394)" d="m0 0h6l3 3-1 5-2 2h-7l-2-5 1-4z" fill="#473732"/>
<path transform="translate(122,105)" d="m0 0 2 3 2 10v25l-1-3-4 3-1-7 3-7v-11z" fill="#281C1C"/>
<path transform="translate(2,56)" d="m0 0 7 1 5 5v3l-8 2h-4z" fill="#160E0E"/>
<path transform="translate(381,387)" d="m0 0 5 1 1 3h2l-1 7-5 1-3-1-4-5 3-2z" fill="#271B1B"/>
<path transform="translate(564,293)" d="m0 0 5 1 3 5h-3l-1 4-3 1-10-2 1-2h4l-1-4 6-1z" fill="#241919"/>
<path transform="translate(284,769)" d="m0 0 5 2 2 2 1 7-1 1h-6l-3-3v-7z" fill="#281C1C"/>
<path transform="translate(23,482)" d="m0 0 1 3-3 4h-5l-1 2-1 1h-7v-2l-5-1v-4l11 1 9-2z" fill="#281C1C"/>
<path transform="translate(489,155)" d="m0 0h2l2 3 2 13 5 10 5 4 3 1 1 4-9-5-4-4-4-8-3-17z" fill="#1D1313"/>
<path transform="translate(16,794)" d="m0 0 3 1 1 6v8l-3 2-4-2v-8z" fill="#302321"/>
<path transform="translate(603,442)" d="m0 0h4l1 4-4 5-5 3-2 5h-3l-1-4 3-5 4-2z" fill="#281C1C"/>
<path transform="translate(731,150)" d="m0 0 6 2 1 7h3l1 4 3 1 2 8h-2v-2l-4-2-2-3v-4h-3v-4h-3l-3-6z" fill="#2C201F"/>
<path transform="translate(728,117)" d="m0 0 4 2 4 12 2-1 2 9-1 4v-2l-4-2-4-12-3-4z" fill="#291D1D"/>
<path transform="translate(851,289)" d="m0 0 4 1 3 3h8l3-1v11l-7-4v-2l-6-2-5-3z" fill="#251A1A"/>
<path transform="translate(117,49)" d="m0 0 3 1 1 16-2 4-5-1 2-10z" fill="#473732"/>
<path transform="translate(143,106)" d="m0 0 3 4v9l-1 1h-6v-13z" fill="#473732"/>
<path transform="translate(274,350)" d="m0 0 5 1 7 5 2 4-1 7-2 2-1-4-2-1 1-5-9-7z" fill="#291D1C"/>
<path transform="translate(515,169)" d="m0 0 3 1 5 11 3 2v2l3 1-1 2-4-1-4-4v-2l-3-1-2-5z" fill="#614E43"/>
<path transform="translate(10,363)" d="m0 0h6l1 4-5 5-4 1-1-6 1-3z" fill="#160E0E"/>
<path transform="translate(473,750)" d="m0 0 5 1 1 4-4 4-5-1-2-2 1-4z" fill="#473732"/>
<path transform="translate(454,368)" d="m0 0h2l-2 4-3 5-2 2h-4v2h-2l-1 5h-2l-1 3 1-7 8-10 5-3z" fill="#1D1313"/>
<path transform="translate(78,475)" d="m0 0 4 1-1 6h-11l-1-4 1-1 7-1z" fill="#261B1B"/>
<path transform="translate(360,748)" d="m0 0 4 1 2 4-5 4h-2l-1 2v-2h-2l1-6z" fill="#281C1C"/>
<path transform="translate(436,832)" d="m0 0 5 2 2 4-1 4-4 1-3-3-1-5z" fill="#473732"/>
<path transform="translate(711,705)" d="m0 0 3 1 4 5 1 4-1 3h-4l-4-9z" fill="#281C1C"/>
<path transform="translate(656,247)" d="m0 0 2 1v3l1 3-5 2h-6l2-7z" fill="#2B1E1E"/>
<path transform="translate(10,464)" d="m0 0h9l6 3v9h-1l-1-8-13-1-8 3v-3l3-2z" fill="#281C1C"/>
<path transform="translate(409,247)" d="m0 0 7 1-3 4-10 2-7 5-1-2 6-5z" fill="#281C1C"/>
<path transform="translate(82,507)" d="m0 0 3 1-2 10-5 3-1-5h3l-1-8z" fill="#281C1C"/>
<path transform="translate(92,469)" d="m0 0 3 1v7l-4 4-2-2v-8z" fill="#281C1C"/>
<path transform="translate(311,341)" d="m0 0 2 1 1 5-4 8-3 1v-7l3-4z" fill="#281C1C"/>
<path transform="translate(15,758)" d="m0 0h3v10l-4 1-2-4 1-6z" fill="#473732"/>
<path transform="translate(632,261)" d="m0 0 3 2h18l4 2-21 1-1 1h-5z" fill="#281C1C"/>
<path transform="translate(567,230)" d="m0 0h2l2 6h2l1 6 2 1v3l-5-2-4-8z" fill="#2A1D1D"/>
<path transform="translate(152,35)" d="m0 0 4 1v7l-2-2-8-1h-8v-1l7-2z" fill="#281C1C"/>
<path transform="translate(27,241)" d="m0 0h1v15l-1 5v10h-1l-2-9-3-2 1-3 4-2z" fill="#281C1C"/>
<path transform="translate(497,583)" d="m0 0h5l2 3-1 4-7-1-1-4z" fill="#473732"/>
<path transform="translate(428,572)" d="m0 0 4 1-2 9-4 1-1-4z" fill="#251A1A"/>
<path transform="translate(24,418)" d="m0 0h1v11l-3 2-2-3v-6z" fill="#473732"/>
<path transform="translate(799,242)" d="m0 0m-1 1m-12 1h12l-4 2v3h-7l-3-3h2z" fill="#281C1C"/>
<path transform="translate(498,125)" d="m0 0 2 4-1 4-3 1-3-1v5l-2-2 4-10z" fill="#261A1A"/>
<path transform="translate(611,157)" d="m0 0h2l3 12 1 5h-4l-2-10z" fill="#281C1C"/>
<path transform="translate(20,109)" d="m0 0 4 2 3 2-1 6-5-2-2-4z" fill="#160E0E"/>
<path transform="translate(614)" d="m0 0h18v2l-4 1h-12z" fill="#473732"/>
<path transform="translate(2,429)" d="m0 0 3 2 1 3v8l-4 1z" fill="#281C1C"/>
<path transform="translate(464,500)" d="m0 0 4 1v6l3 1-5 1-3-3v-2h-2l1-3z" fill="#281C1C"/>
<path transform="translate(630,7)" d="m0 0h5l1 3-5 4-4-1-1-4z" fill="#160E0E"/>
<path transform="translate(321,734)" d="m0 0h6l2 1v3l-2 1-9-1 1-3z" fill="#281C1C"/>
<path transform="translate(506,100)" d="m0 0v3l-4 9-1 4h-2v5l-2-4 4-12z" fill="#281C1C"/>
<path transform="translate(385,20)" d="m0 0 4 1-3 5-7 1 1-4z" fill="#281C1C"/>
<path transform="translate(558,307)" d="m0 0 9 1 2 1v2h-2v2l-5 1-3-2 1-2h1z" fill="#281C1C"/>
<path transform="translate(722,240)" d="m0 0h2v2h8l-4 3-12-1 1-3z" fill="#281C1C"/>
<path transform="translate(52,86)" d="m0 0h3v9l-1 4h-3l1-5v-1l-2-1 1-5z" fill="#281C1C"/>
<path transform="translate(731,150)" d="m0 0 6 2 1 7 1 2h-3v-4h-3l-3-6z" fill="#281C1C"/>
<path transform="translate(81,62)" d="m0 0h5l1 2v7l-2 1-3-4z" fill="#473732"/>
<path transform="translate(564,21)" d="m0 0 4 1-8 2v4h-2l-1 4-4 1v-2l3-2 1-3-2-1h3v-2z" fill="#281C1C"/>
<path transform="translate(284,709)" d="m0 0 3 1 3 8 4 2-1 2-6-2-3-9z" fill="#281C1C"/>
<path transform="translate(380,274)" d="m0 0 3 2-2 5-5-1v-3l1-2z" fill="#281C1C"/>
<path transform="translate(75,545)" d="m0 0 3 1-1 7-5-1 2-6z" fill="#281C1C"/>
<path transform="translate(654,528)" d="m0 0 5 1 1 3-2 3-4-1-1-5z" fill="#473732"/>
<path transform="translate(2,377)" d="m0 0 4 1v7l-4 2z" fill="#160E0E"/>
<path transform="translate(409,55)" d="m0 0 5 1v4l-5 1-2-4z" fill="#160E0E"/>
<path transform="translate(71,530)" d="m0 0h2l4 5 1 5-5-2-2-6z" fill="#281C1C"/>
<path transform="translate(9,305)" d="m0 0 4 1-2 6-3 3-1-4z" fill="#160E0E"/>
<path transform="translate(515,169)" d="m0 0 3 1 3 6-1 2-1 1-1 2-3-6z" fill="#483833"/>
<path transform="translate(499,180)" d="m0 0 4 2 3-1v2l5 2v3h-3v-2l-4-1z" fill="#473732"/>
<path transform="translate(723,100)" d="m0 0 3 1-1 5 2 4-2 2-2-1-1-6z" fill="#281C1C"/>
<path transform="translate(480,516)" d="m0 0h5l-2 4-3 2-2 3v-8z" fill="#181010"/>
<path transform="translate(495,172)" d="m0 0 5 2 4 7-1 2-6-5z" fill="#5A483F"/>
<path transform="translate(433,397)" d="m0 0 2 1 2 6h-2v-2h-2v6h-2v-7z" fill="#191010"/>
<path transform="translate(534,306)" d="m0 0 2 1-1 3-3 1h-10l1-2 10-2z" fill="#281C1C"/>
<path transform="translate(651,215)" d="m0 0 5 1 1 4-5-1-3 1-2 3 1-6z" fill="#281C1C"/>
<path transform="translate(484,157)" d="m0 0h2l2 11 1 1v5l-2-3-3-7z" fill="#231818"/>
<path transform="translate(312,421)" d="m0 0h3l5 8v2l-3-1-5-6z" fill="#1D1414"/>
<path transform="translate(867,272)" d="m0 0 2 1v9l-5-5 1-4z" fill="#160E0E"/>
<path transform="translate(497,180)" d="m0 0 4 2 7 4 1 4-9-5-3-2z" fill="#1C1212"/>
<path transform="translate(27,28)" d="m0 0 5 1v3l-8 1-2-2z" fill="#231818"/>
<path transform="translate(471,372)" d="m0 0h6l-2 1v3l-5 2-2-5z" fill="#160E0E"/>
<path transform="translate(594,293)" d="m0 0 6 1-3 3h-8l1-3z" fill="#281C1C"/>
<path transform="translate(553,204)" d="m0 0 5 1 2 1 1 8-2 1-2-8z" fill="#816958"/>
<path transform="translate(150,49)" d="m0 0h1v8h2l1-5 2-1 1 3-5 5-2-1z" fill="#281C1C"/>
<path transform="translate(554,26)" d="m0 0h3l-1 4-4 2-3 4 1-5z" fill="#1D1414"/>
<path transform="translate(544,455)" d="m0 0h2v5l-3 4h-2l1-6z" fill="#241818"/>
<path transform="translate(851,289)" d="m0 0 4 1 3 3 3 1v2l-5-1-5-3z" fill="#1A1111"/>
<path transform="translate(484,146)" d="m0 0h2l3 6-2 2-4-3z" fill="#251919"/>
<path transform="translate(106,134)" d="m0 0 4 2-1 4-4 1-1-5z" fill="#281C1C"/>
<path transform="translate(407)" d="m0 0h9l-1 3h-8z" fill="#473732"/>
<path transform="translate(332,637)" d="m0 0 7 1-1 2-7 1-1-3z" fill="#160E0E"/>
<path transform="translate(435,500)" d="m0 0 4 1 4 2v2l4 2 2 2-5-1-6-5z" fill="#281C1C"/>
<path transform="translate(303,406)" d="m0 0 4 4 1 6h-2l-3-5z" fill="#1D1313"/>
<path transform="translate(468,367)" d="m0 0h6l3 3h-11z" fill="#1D1413"/>
</svg>
